<svg width="64" height="64" viewBox="0 0 64 64" fill="none" xmlns="http://www.w3.org/2000/svg">
  <defs>
    <linearGradient id="bt" x1="8" y1="8" x2="56" y2="56" gradientUnits="userSpaceOnUse">
      <stop stop-color="#00e5ff"/>
      <stop offset="0.5" stop-color="#86a3ff"/>
      <stop offset="1" stop-color="#ff2bd6"/>
    </linearGradient>
  </defs>
  <rect width="64" height="64" rx="14" fill="#03040b"/>
  <path d="M32 9 L52 20.5 L52 43.5 L32 55 L12 43.5 L12 20.5 Z"
        fill="none" stroke="url(#bt)" stroke-width="3" stroke-linejoin="round"/>
  <path d="M32 9 L52 20.5 L52 43.5 L32 55 L12 43.5 L12 20.5 Z"
        fill="url(#bt)" opacity="0.12"/>
  <circle cx="32" cy="32" r="6.5" fill="url(#bt)"/>
  <path d="M32 25.5 L32 18 M32 38.5 L32 46 M26.4 28.8 L20 25.2 M37.6 35.2 L44 38.8 M37.6 28.8 L44 25.2 M26.4 35.2 L20 38.8"
        stroke="url(#bt)" stroke-width="2.4" stroke-linecap="round"/>
  <circle cx="20" cy="25.2" r="2.4" fill="url(#bt)"/>
  <circle cx="44" cy="38.8" r="2.4" fill="url(#bt)"/>
  <circle cx="44" cy="25.2" r="2.4" fill="url(#bt)"/>
  <circle cx="20" cy="38.8" r="2.4" fill="url(#bt)"/>
  <circle cx="32" cy="18" r="2.4" fill="url(#bt)"/>
  <circle cx="32" cy="46" r="2.4" fill="url(#bt)"/>
</svg>
